<svg width="40" height="40" viewBox="0 0 40 40" fill="none" xmlns="http://www.w3.org/2000/svg">
<path d="M18.6664 23.1111C24.1731 23.1111 28.4442 16.8996 28.4442 11.5556V9.77778C28.4442 4.38667 24.0576 0 18.6664 0C13.2753 0 8.88867 4.38667 8.88867 9.77778V11.5556C8.88867 16.8996 13.1598 23.1111 18.6664 23.1111Z" fill="#75668C"/>
<path d="M22.2222 32.0001C22.2222 29.7841 22.9716 27.7449 24.2187 26.1041C22.5058 25.9067 20.6533 25.7778 18.6667 25.7778C12.8409 25.7778 8.06578 26.8338 5.08622 27.7201C2.04444 28.6249 0 31.3654 0 34.5387V38.2223C0 38.7129 0.398222 39.1112 0.888889 39.1112H25.3102C23.4142 37.3263 22.2222 34.8027 22.2222 32.0001Z" fill="#75668C"/>
<path d="M32 24C27.5884 24 24 27.5884 24 32C24 36.4116 27.5884 40 32 40C36.4116 40 40 36.4116 40 32C40 27.5884 36.4116 24 32 24ZM37.0729 29.9618L30.8507 36.184C30.6773 36.3573 30.4498 36.4444 30.2222 36.4444C29.9947 36.4444 29.7671 36.3573 29.5938 36.184L26.9271 33.5173C26.5796 33.1698 26.5796 32.608 26.9271 32.2604C27.2747 31.9129 27.8364 31.9129 28.184 32.2604L30.2222 34.2987L35.816 28.7049C36.1636 28.3573 36.7253 28.3573 37.0729 28.7049C37.4204 29.0524 37.4204 29.6142 37.0729 29.9618Z" fill="#9C8DB4"/>
</svg>
