<svg width="40" height="40" viewBox="0 0 40 40" fill="none" xmlns="http://www.w3.org/2000/svg">
<path d="M20.0002 39.1667C21.1807 39.1645 22.3223 38.7451 23.2236 37.9827C24.1248 37.2202 24.7275 36.1638 24.9252 35H15.0752C15.2729 36.1638 15.8756 37.2202 16.7768 37.9827C17.678 38.7451 18.8197 39.1645 20.0002 39.1667Z" fill="#6F40A4"/>
<path d="M32.5002 21.6665V19.124C32.2252 19.149 31.9486 19.1665 31.6669 19.1665C29.7275 19.1685 27.8375 18.5547 26.2693 17.4135C24.7011 16.2722 23.5358 14.6626 22.9414 12.8165C22.3469 10.9704 22.3539 8.98322 22.9615 7.14139C23.569 5.29955 24.7457 3.69819 26.3219 2.56812C24.4256 1.44751 22.2664 0.848959 20.0638 0.833322C17.8612 0.817685 15.6937 1.38552 13.7817 2.47909C11.8696 3.57267 10.2812 5.15301 9.17795 7.05945C8.07466 8.96589 7.49581 11.1305 7.50024 13.3331V21.6665C7.50024 26.3331 3.52858 31.9598 3.48858 32.0156C3.39963 32.1402 3.34672 32.2869 3.33567 32.4396C3.32462 32.5923 3.35585 32.7451 3.42593 32.8813C3.49601 33.0174 3.60224 33.1315 3.73295 33.2113C3.86366 33.291 4.01381 33.3331 4.16691 33.3331H35.8336C35.9867 33.3331 36.1368 33.291 36.2675 33.2113C36.3982 33.1315 36.5045 33.0174 36.5746 32.8813C36.6446 32.7451 36.6759 32.5923 36.6648 32.4396C36.6538 32.2869 36.6009 32.1402 36.5119 32.0156C36.4719 31.9598 32.5002 26.3331 32.5002 21.6665Z" fill="#6F40A4"/>
<path d="M24.167 10C24.167 11.4834 24.6069 12.9334 25.431 14.1668C26.2551 15.4001 27.4264 16.3614 28.7969 16.9291C30.1673 17.4968 31.6753 17.6453 33.1302 17.3559C34.585 17.0665 35.9214 16.3522 36.9703 15.3033C38.0192 14.2544 38.7335 12.918 39.0229 11.4632C39.3123 10.0083 39.1637 8.50032 38.5961 7.12987C38.0284 5.75943 37.0671 4.58809 35.8338 3.76398C34.6004 2.93987 33.1504 2.5 31.667 2.5C29.6779 2.5 27.7702 3.29018 26.3637 4.6967C24.9572 6.10322 24.167 8.01088 24.167 10ZM32.5003 6.66667V9.16667H35.0003C35.2213 9.16667 35.4333 9.25446 35.5896 9.41074C35.7459 9.56702 35.8337 9.77899 35.8337 10C35.8337 10.221 35.7459 10.433 35.5896 10.5893C35.4333 10.7455 35.2213 10.8333 35.0003 10.8333H32.5003V13.3333C32.5003 13.5543 32.4125 13.7663 32.2562 13.9226C32.1 14.0789 31.888 14.1667 31.667 14.1667C31.446 14.1667 31.234 14.0789 31.0777 13.9226C30.9215 13.7663 30.8337 13.5543 30.8337 13.3333V10.8333H28.3337C28.1126 10.8333 27.9007 10.7455 27.7444 10.5893C27.5881 10.433 27.5003 10.221 27.5003 10C27.5003 9.77899 27.5881 9.56702 27.7444 9.41074C27.9007 9.25446 28.1126 9.16667 28.3337 9.16667H30.8337V6.66667C30.8337 6.44565 30.9215 6.23369 31.0777 6.07741C31.234 5.92113 31.446 5.83333 31.667 5.83333C31.888 5.83333 32.1 5.92113 32.2562 6.07741C32.4125 6.23369 32.5003 6.44565 32.5003 6.66667Z" fill="white"/>
</svg>
