<svg width="40" height="40" viewBox="0 0 40 40" fill="none" xmlns="http://www.w3.org/2000/svg">
<path d="M12.5002 36.6667H10.0002V25H6.66683V36.6667H4.16683C3.94582 36.6667 3.73385 36.7545 3.57757 36.9107C3.42129 37.067 3.3335 37.279 3.3335 37.5C3.3335 37.721 3.42129 37.933 3.57757 38.0893C3.73385 38.2455 3.94582 38.3333 4.16683 38.3333H12.5002C12.7212 38.3333 12.9331 38.2455 13.0894 38.0893C13.2457 37.933 13.3335 37.721 13.3335 37.5C13.3335 37.279 13.2457 37.067 13.0894 36.9107C12.9331 36.7545 12.7212 36.6667 12.5002 36.6667Z" fill="#75668C"/>
<path d="M35.8337 36.6667H33.3337V25H30.0003V36.6667H27.5003C27.2793 36.6667 27.0673 36.7545 26.9111 36.9107C26.7548 37.067 26.667 37.279 26.667 37.5C26.667 37.721 26.7548 37.933 26.9111 38.0893C27.0673 38.2455 27.2793 38.3333 27.5003 38.3333H35.8337C36.0547 38.3333 36.2666 38.2455 36.4229 38.0893C36.5792 37.933 36.667 37.721 36.667 37.5C36.667 37.279 36.5792 37.067 36.4229 36.9107C36.2666 36.7545 36.0547 36.6667 35.8337 36.6667Z" fill="#75668C"/>
<path d="M10.0003 4.99984V2.49984C10.0003 2.27882 9.91253 2.06686 9.75625 1.91058C9.59997 1.7543 9.38801 1.6665 9.16699 1.6665H7.50033C7.27931 1.6665 7.06735 1.7543 6.91107 1.91058C6.75479 2.06686 6.66699 2.27882 6.66699 2.49984V4.99984H10.0003Z" fill="#75668C"/>
<path d="M33.3333 4.99984V2.49984C33.3333 2.27882 33.2455 2.06686 33.0893 1.91058C32.933 1.7543 32.721 1.6665 32.5 1.6665H30.8333C30.6123 1.6665 30.4004 1.7543 30.2441 1.91058C30.0878 2.06686 30 2.27882 30 2.49984V4.99984H33.3333Z" fill="#75668C"/>
<path d="M38.3335 6.6665H1.66683C1.44582 6.6665 1.23385 6.7543 1.07757 6.91058C0.921293 7.06686 0.833496 7.27882 0.833496 7.49984V22.4998C0.833496 22.7208 0.921293 22.9328 1.07757 23.0891C1.23385 23.2454 1.44582 23.3332 1.66683 23.3332H38.3335C38.5545 23.3332 38.7665 23.2454 38.9228 23.0891C39.079 22.9328 39.1668 22.7208 39.1668 22.4998V7.49984C39.1668 7.27882 39.079 7.06686 38.9228 6.91058C38.7665 6.7543 38.5545 6.6665 38.3335 6.6665ZM37.5002 15.8332L30.0002 8.33317H37.5002V15.8332ZM16.6668 8.33317H23.3335L36.6668 21.6665H30.0002L16.6668 8.33317ZM23.3335 21.6665H16.6668L3.3335 8.33317H10.0002L23.3335 21.6665ZM2.50016 14.1665L10.0002 21.6665H2.50016V14.1665Z" fill="#75668C"/>
</svg>
