<svg width="40" height="40" viewBox="0 0 40 40" fill="none" xmlns="http://www.w3.org/2000/svg">
<path d="M37.1869 18.665C35.566 26.0484 27.7319 31.6667 18.3335 31.6667C17.001 31.6667 15.671 31.545 14.3594 31.3142C17.5819 34.1409 22.571 35.5667 27.7269 34.7942L34.6277 38.2459C34.7452 38.3042 34.8727 38.3334 35.0002 38.3334C35.1527 38.3334 35.3044 38.2917 35.4385 38.2092C35.6835 38.0575 35.8335 37.7892 35.8335 37.5V31.1425C37.986 29.1892 39.1669 26.7259 39.1669 24.1667C39.1669 22.21 38.4694 20.32 37.1869 18.665Z" fill="white"/>
<path d="M18.3335 1.66675C8.6835 1.66675 0.833496 8.02175 0.833496 15.8334C0.833496 18.8359 1.98433 21.6984 4.16683 24.1334V32.5001C4.16683 32.7892 4.31683 33.0567 4.56183 33.2092C4.696 33.2917 4.84766 33.3334 5.00016 33.3334C5.12766 33.3334 5.25516 33.3042 5.37266 33.2459L13.1477 29.3584C14.8435 29.7842 16.586 30.0001 18.3335 30.0001C27.9835 30.0001 35.8335 23.6451 35.8335 15.8334C35.8335 8.02175 27.9835 1.66675 18.3335 1.66675Z" fill="#6F40A4"/>
</svg>
