<svg width="20" height="21" viewBox="0 0 20 21" fill="none" xmlns="http://www.w3.org/2000/svg">
<path d="M16.4163 4.0835C16.083 3.75016 15.583 3.75016 15.2497 4.0835L9.99967 9.3335L4.74967 4.0835C4.41634 3.75016 3.91634 3.75016 3.58301 4.0835C3.24967 4.41683 3.24967 4.91683 3.58301 5.25016L8.83301 10.5002L3.58301 15.7502C3.24967 16.0835 3.24967 16.5835 3.58301 16.9168C3.74967 17.0835 3.91634 17.1668 4.16634 17.1668C4.41634 17.1668 4.58301 17.0835 4.74967 16.9168L9.99967 11.6668L15.2497 16.9168C15.4163 17.0835 15.6663 17.1668 15.833 17.1668C15.9997 17.1668 16.2497 17.0835 16.4163 16.9168C16.7497 16.5835 16.7497 16.0835 16.4163 15.7502L11.1663 10.5002L16.4163 5.25016C16.7497 4.91683 16.7497 4.41683 16.4163 4.0835Z" fill="#DAD0E6"/>
</svg>
