<svg width="14" height="14" viewBox="0 0 14 14" fill="none" xmlns="http://www.w3.org/2000/svg">
<path fill-rule="evenodd" clip-rule="evenodd" d="M7 14C10.866 14 14 10.866 14 7C14 3.13401 10.866 0 7 0C3.13401 0 0 3.13401 0 7C0 10.866 3.13401 14 7 14ZM6.92676 11.3746C6.43138 11.3612 6.03393 10.9554 6.03393 10.4568C6.03393 9.94968 6.44502 9.53859 6.95212 9.53859C7.45922 9.53859 7.87031 9.94968 7.87031 10.4568C7.87031 10.9582 7.4684 11.3657 6.96916 11.3748C6.96337 11.3749 6.95757 11.375 6.95175 11.375C6.94339 11.375 6.93506 11.3749 6.92676 11.3746ZM6.90313 8.625C6.48891 8.625 6.15313 8.28921 6.15313 7.875V3.5C6.15313 3.08579 6.48891 2.75 6.90313 2.75C7.31734 2.75 7.65313 3.08579 7.65313 3.5V7.875C7.65313 8.28921 7.31734 8.625 6.90313 8.625Z" fill="#F77272"/>
</svg>
