<svg width="17" height="12" viewBox="0 0 17 12" fill="none" xmlns="http://www.w3.org/2000/svg">
<path d="M16.3982 5.64541C16.2702 5.44208 13.2142 0.666748 8.50017 0.666748C3.78617 0.666748 0.73017 5.44208 0.60217 5.64541C0.535414 5.75167 0.5 5.8746 0.5 6.00008C0.5 6.12556 0.535414 6.2485 0.60217 6.35475C0.73017 6.55808 3.78617 11.3334 8.50017 11.3334C13.2142 11.3334 16.2702 6.55808 16.3982 6.35475C16.4649 6.2485 16.5003 6.12556 16.5003 6.00008C16.5003 5.8746 16.4649 5.75167 16.3982 5.64541ZM8.50017 10.0001C5.20884 10.0001 2.74217 7.03875 1.97884 6.00008C2.99873 4.58224 4.33823 3.42454 5.88884 2.62075C5.42435 3.20183 5.16991 3.92285 5.16684 4.66675C5.16684 5.5508 5.51803 6.39865 6.14315 7.02377C6.76827 7.64889 7.61612 8.00008 8.50017 8.00008C9.38423 8.00008 10.2321 7.64889 10.8572 7.02377C11.4823 6.39865 11.8335 5.5508 11.8335 4.66675C11.8304 3.92495 11.5774 3.20584 11.1155 2.62541C12.6626 3.43065 14.0002 4.58626 15.0215 6.00008C14.2608 7.04075 11.8022 10.0001 8.50017 10.0001Z" fill="#DAD0E6"/>
</svg>
