<svg width="52" height="47" viewBox="0 0 52 47" fill="none" xmlns="http://www.w3.org/2000/svg">
<path d="M30.6664 27.1111C36.1731 27.1111 40.4442 20.8996 40.4442 15.5556V13.7778C40.4442 8.38667 36.0576 4 30.6664 4C25.2753 4 20.8887 8.38667 20.8887 13.7778V15.5556C20.8887 20.8996 25.1598 27.1111 30.6664 27.1111Z" fill="white"/>
<path d="M34.2222 36.0035C34.2222 33.7875 34.9716 31.7484 36.2187 30.1075C34.5058 29.9101 32.6533 29.7812 30.6667 29.7812C24.8409 29.7812 20.0658 30.8373 17.0862 31.7235C14.0444 32.6284 12 35.3688 12 38.5421V42.2257C12 42.7164 12.3982 43.1146 12.8889 43.1146H37.3102C35.4142 41.3297 34.2222 38.8061 34.2222 36.0035Z" fill="white"/>
<path d="M28.0878 36.0035C28.0878 33.7875 27.3385 31.7484 26.0914 30.1075C27.8043 29.9101 29.6567 29.7812 31.6434 29.7812C37.4692 29.7812 42.2443 30.8373 45.2238 31.7235C48.2656 32.6284 50.3101 35.3688 50.3101 38.5421V42.2257C50.3101 42.7164 49.9118 43.1146 49.4212 43.1146H24.9998C26.8958 41.3297 28.0878 38.8061 28.0878 36.0035Z" fill="white"/>
<path d="M18.6664 23.1111C24.1731 23.1111 28.4442 16.8996 28.4442 11.5556V9.77778C28.4442 4.38667 24.0576 0 18.6664 0C13.2753 0 8.88867 4.38667 8.88867 9.77778V11.5556C8.88867 16.8996 13.1598 23.1111 18.6664 23.1111Z" fill="#9867CE"/>
<path d="M22.2222 32.0035C22.2222 29.7875 22.9716 27.7484 24.2187 26.1075C22.5058 25.9101 20.6533 25.7812 18.6667 25.7812C12.8409 25.7812 8.06578 26.8373 5.08622 27.7235C2.04444 28.6284 0 31.3688 0 34.5421V38.2257C0 38.7164 0.398222 39.1146 0.888889 39.1146H25.3102C23.4142 37.3297 22.2222 34.8061 22.2222 32.0035Z" fill="#9867CE"/>
<path d="M16.0878 32.0035C16.0878 29.7875 15.3385 27.7484 14.0914 26.1075C15.8043 25.9101 17.6567 25.7812 19.6434 25.7812C25.4692 25.7812 30.2443 26.8373 33.2238 27.7235C36.2656 28.6284 38.3101 31.3688 38.3101 34.5421V38.2257C38.3101 38.7164 37.9118 39.1146 37.4212 39.1146H12.9998C14.8958 37.3297 16.0878 34.8061 16.0878 32.0035Z" fill="#9867CE"/>
<path d="M24.6664 30.1111C30.1731 30.1111 34.4442 23.8996 34.4442 18.5556V16.7778C34.4442 11.3867 30.0576 7 24.6664 7C19.2753 7 14.8887 11.3867 14.8887 16.7778V18.5556C14.8887 23.8996 19.1598 30.1111 24.6664 30.1111Z" fill="#7040A5"/>
<path d="M28.2222 39.0035C28.2222 36.7875 28.9716 34.7484 30.2187 33.1075C28.5058 32.9101 26.6533 32.7812 24.6667 32.7812C18.8409 32.7812 14.0658 33.8373 11.0862 34.7235C8.04444 35.6284 6 38.3688 6 41.5421V45.2257C6 45.7164 6.39822 46.1146 6.88889 46.1146H31.3102C29.4142 44.3297 28.2222 41.8061 28.2222 39.0035Z" fill="#7040A5"/>
<path d="M21.0878 39.0035C21.0878 36.7875 20.3385 34.7484 19.0914 33.1075C20.8043 32.9101 22.6567 32.7812 24.6434 32.7812C30.4692 32.7812 35.2443 33.8373 38.2238 34.7235C41.2656 35.6284 43.3101 38.3688 43.3101 41.5421V45.2257C43.3101 45.7164 42.9118 46.1146 42.4212 46.1146H17.9998C19.8958 44.3297 21.0878 41.8061 21.0878 39.0035Z" fill="#7040A5"/>
</svg>
