<svg width="16" height="16" viewBox="0 0 16 16" fill="none" xmlns="http://www.w3.org/2000/svg">
<path d="M1 5L8 9L15 5" stroke="#75668C" stroke-width="2" stroke-linecap="round" stroke-linejoin="round"/>
<path d="M13.6 14H2.4C2.0287 14 1.6726 13.8541 1.41005 13.5945C1.1475 13.3348 1 12.9826 1 12.6154V3.38462C1 3.01739 1.1475 2.66521 1.41005 2.40554C1.6726 2.14588 2.0287 2 2.4 2H13.6C13.9713 2 14.3274 2.14588 14.5899 2.40554C14.8525 2.66521 15 3.01739 15 3.38462V12.6154C15 12.9826 14.8525 13.3348 14.5899 13.5945C14.3274 13.8541 13.9713 14 13.6 14V14Z" stroke="#75668C" stroke-width="2" stroke-linecap="round" stroke-linejoin="round"/>
</svg>
