<svg width="40" height="40" viewBox="0 0 40 40" fill="none" xmlns="http://www.w3.org/2000/svg">
<g clip-path="url(#clip0_552_8338)">
<path fill-rule="evenodd" clip-rule="evenodd" d="M14.3609 6.09594L14.3102 5.99453L14.3471 6.09079L2.29292 1.59579L1.48163 1L16.7061 12.244L14.3471 6.09079L14.3609 6.09594ZM23.2362 12.8922L23.2343 12.8907L23.2216 12.9034L23.2362 12.8922ZM23.2362 12.8922L28.9134 17.4923L37.1658 19.9642L38.8517 17.9993L38.1292 17.4796C38.1292 17.4796 38.1038 17.4416 38.0911 17.4162C38.0911 17.3908 38.0912 17.3655 38.1165 17.3528L39.3208 16.25L38.4081 15.5401C38.4081 15.5401 38.3827 15.5021 38.3827 15.4767C38.3827 15.4513 38.3827 15.426 38.4081 15.4133L39.5997 14.5006L38.8391 13.9302C38.8391 13.9302 38.801 13.8795 38.8137 13.8541L40.1574 7.37644L38.1672 1.49456L38.0024 1.62132L23.2362 12.8922ZM37.4324 1.6592L25.6179 6.07061L23.3108 12.4342L37.4324 1.6592ZM15.3753 23.5769C15.35 23.5769 15.312 23.5895 15.312 23.5895L15.3246 23.5769L12.3076 24.8825L9.07513 21.6754L17.4289 22.0303L16.5923 26.1248L15.5275 23.6656C15.5148 23.6276 15.4767 23.5895 15.4387 23.5769H15.3753ZM17.6184 31.7866L16.9854 32.1714L14.5261 30.2445L12.3838 28.4065L12.3711 25.3261L16.4656 26.6951L17.5495 31.4194L17.6184 31.7866ZM17.6319 31.7784L17.6192 31.7911L17.6184 31.7866L17.6319 31.7784ZM17.6319 31.7784L17.5431 31.3854L17.5495 31.4194L17.6319 31.7784ZM9.25215 22.3346L12.0663 27.7982L12.0537 25.1107L9.25215 22.3346ZM22.9302 35.3915H16.9342H16.9216C16.8709 35.3915 16.8075 35.4422 16.8075 35.4422L16.6934 35.5563L17.099 32.5393L17.8596 32.0196H22.0048L22.8288 32.59L23.1964 35.5817L23.0316 35.4296C23.0063 35.4042 22.9302 35.3915 22.9302 35.3915ZM23.1585 32.5641L23.5642 35.9487L23.4247 37.2544L28.2037 35.0107L27.4432 29.2175L23.1585 32.5641ZM17.4285 21.7387L17.3778 20.8387L16.8961 13.0173L11.1536 17.7456L8.93524 21.3711L17.4285 21.7387ZM17.6315 24.8066L17.6442 30.4096L16.7949 26.6701L17.5175 23.0953L17.6315 24.8066ZM14.3233 30.4983L14.3359 30.511L12.5105 29.0913L11.6866 35.0112L16.3515 37.0901L16.3261 35.9873L16.7698 32.6153L14.3233 30.4983ZM8.49159 21.4723V21.5484H8.47891L12.1171 28.6345L0.264561 28.6852H0.0870907L2.76183 20.3314L10.6719 17.9102L8.52962 21.4343V21.4089L8.49159 21.4723ZM22.2208 30.6883L23.1069 26.3842L23.1081 26.391V26.3783L23.1069 26.3842L22.4109 22.55L22.2461 24.8064L22.2208 30.6883ZM-0.267578 7.40187L1.0757 13.8775C1.07446 13.8961 1.06962 13.9335 1.05077 13.9429L0.27751 14.5134L1.4691 15.4261C1.4691 15.4261 1.49445 15.4641 1.49445 15.4895C1.49445 15.5148 1.49445 15.5402 1.4691 15.5528L0.569069 16.2627L1.77333 17.3656C1.77333 17.3656 1.79869 17.4036 1.79869 17.429C1.79869 17.4543 1.78601 17.4797 1.76066 17.4923L1.0381 18.0121L2.7477 20.0129L1.87475 20.2812L2.74942 20.015L2.7477 20.0129L10.9511 17.4923L16.7696 12.7006L1.29163 1.25378L1.67192 1.54534L-0.267578 7.40187ZM28.7109 17.7455L30.9546 21.3709L22.6262 21.7386L23.1079 13.2073L28.6982 17.7328L28.7109 17.7455ZM28.5208 34.9854L37.3635 37.4178L37.3183 37.5714L37.2803 37.7235L37.369 37.4193L37.3635 37.4178L39.8408 29.0024L39.8916 29.0021H39.8409L39.8408 29.0024L27.7475 29.0782L28.5208 34.9854ZM23.1459 37.6605C23.1966 37.6859 23.3107 37.6732 23.3107 37.6732L23.298 37.6478L27.3165 35.759L26.4798 36.4436L22.9431 38.8901H16.8964L13.3724 36.4436L12.4596 35.6956L16.4401 37.445H16.402L16.5541 37.5211C16.5795 37.5337 16.6049 37.5337 16.6302 37.5211C16.6556 37.5084 16.6682 37.4577 16.6682 37.4577L16.6429 36.0506L16.9978 35.7083H22.8797L23.2473 36.0379L23.0825 37.5084C23.0699 37.5718 23.0952 37.6351 23.1459 37.6605ZM2.52125 37.4193L11.3694 34.9854L12.2187 28.9514L0.0493336 29.0021L2.55927 37.5714L2.52125 37.4193ZM24.071 26.34L23.3992 26.5175L23.4118 26.5048L27.3796 25.4653L27.3162 28.7866C27.3162 28.8246 27.3542 28.888 27.3542 28.888L23.133 32.1839L22.9935 32.298L22.3217 31.8416L23.3992 26.5175V26.5428L24.071 26.34ZM31.3476 21.4092L31.3856 21.4726C31.3856 21.4726 31.3983 21.5233 31.3856 21.5487L27.6714 28.7489L32.5011 28.6855H39.7901L37.052 20.2683L29.1672 17.8978L31.3349 21.3965L31.3476 21.4092ZM27.6587 28.0768L27.7855 25.2372L30.6123 22.3724L27.646 28.1148L27.6587 28.0768ZM17.2006 12.6878L17.7583 21.8909V21.929L17.6696 22.3473L18.0499 24.7685L17.8358 31.1775L17.8344 31.1701V31.2208L17.8358 31.1775L17.9358 31.6898H22.0176L22.043 31.5377L21.8655 24.7685L22.2965 21.8909L22.8162 12.8653L22.3092 21.7895L22.8289 12.7132V12.6878L25.2121 6.24816H14.754L14.6019 5.85519L17.1752 12.6244V12.6751L17.2006 12.6878ZM30.8145 21.6887L30.8276 21.6881V21.6754L30.8145 21.6887ZM22.6386 22.0557L30.8145 21.6887L27.4937 25.06L24.5908 23.5895C24.5785 23.5895 24.565 23.5882 24.5509 23.5869C24.5214 23.584 24.4898 23.5809 24.464 23.5895C24.426 23.6022 24.3753 23.6656 24.3753 23.6656L23.3231 25.8713L22.6386 22.0557Z" fill="#402B5B"/>
</g>
<defs>
<clipPath id="clip0_552_8338">
<rect width="40" height="40" fill="white"/>
</clipPath>
</defs>
</svg>
