<svg width="24" height="24" viewBox="0 0 24 24" fill="none" xmlns="http://www.w3.org/2000/svg">
<path d="M12.2008 15.5997C15.1708 15.5997 17.6008 13.1697 17.6008 10.1997V6.59971C17.6008 3.62971 15.1708 1.19971 12.2008 1.19971C9.23078 1.19971 6.80078 3.62971 6.80078 6.59971V10.1997C6.80078 13.1697 9.23078 15.5997 12.2008 15.5997Z" fill="#75668C"/>
<path d="M21.2031 10.1998C21.2031 9.6598 20.8431 9.2998 20.3031 9.2998C19.7631 9.2998 19.4031 9.6598 19.4031 10.1998C19.4031 14.1598 16.1631 17.3998 12.2031 17.3998C8.24312 17.3998 5.00312 14.1598 5.00312 10.1998C5.00312 9.6598 4.64312 9.2998 4.10312 9.2998C3.56312 9.2998 3.20312 9.6598 3.20312 10.1998C3.20312 14.8798 6.80312 18.6598 11.3031 19.1098V20.9998H7.70312C7.16312 20.9998 6.80312 21.3598 6.80312 21.8998C6.80312 22.4398 7.16312 22.7998 7.70312 22.7998H16.7031C17.2431 22.7998 17.6031 22.4398 17.6031 21.8998C17.6031 21.3598 17.2431 20.9998 16.7031 20.9998H13.1031V19.1098C17.6031 18.6598 21.2031 14.8798 21.2031 10.1998Z" fill="#75668C"/>
</svg>
