<svg width="40" height="40" viewBox="0 0 40 40" fill="none" xmlns="http://www.w3.org/2000/svg">
<path d="M32.1469 11.3892L26.7636 16.7717C27.4351 18.1698 27.6558 19.7419 27.3952 21.2709C27.1346 22.7999 26.4056 24.2102 25.3088 25.3069C24.2121 26.4037 22.8018 27.1327 21.2728 27.3933C19.7438 27.6539 18.1717 27.4332 16.7736 26.7617L12.1436 31.3925C14.5745 32.6454 17.2655 33.3102 20.0002 33.3333C29.3719 33.3333 36.1844 25.0833 38.6786 21.53C38.9907 21.0808 39.1585 20.5471 39.1595 20.0001C39.1606 19.4531 38.9948 18.9187 38.6844 18.4683C36.8442 15.8167 34.644 13.4341 32.1469 11.3892Z" fill="#75668C"/>
<path d="M1.31248 21.5207C3.15178 24.1775 5.35335 26.5641 7.85332 28.6115L13.2392 23.2257C12.5683 21.8278 12.348 20.256 12.6087 18.7275C12.8694 17.199 13.5983 15.7892 14.6947 14.6927C15.791 13.5963 17.2008 12.8673 18.7293 12.6064C20.2578 12.3456 21.8295 12.5657 23.2275 13.2365L27.8567 8.60817C25.426 7.35441 22.7348 6.68931 20 6.6665C10.47 6.6665 3.74998 14.9257 1.30415 18.4798C0.999681 18.9286 0.837538 19.4587 0.838875 20.001C0.840213 20.5433 1.00497 21.0726 1.31165 21.5198L1.31248 21.5207Z" fill="#75668C"/>
<path d="M3.33316 37.5C3.16836 37.5 3.00728 37.4511 2.87027 37.3595C2.73327 37.2679 2.62648 37.1378 2.56342 36.9855C2.50037 36.8333 2.48386 36.6658 2.516 36.5041C2.54814 36.3425 2.62748 36.194 2.74399 36.0775L36.0773 2.74415C36.1542 2.66456 36.2462 2.60108 36.3478 2.5574C36.4495 2.51373 36.5588 2.49074 36.6695 2.48978C36.7801 2.48882 36.8899 2.5099 36.9923 2.5518C37.0947 2.5937 37.1877 2.65558 37.266 2.73382C37.3442 2.81207 37.4061 2.90511 37.448 3.00752C37.4899 3.10994 37.511 3.21967 37.51 3.33032C37.5091 3.44097 37.4861 3.55032 37.4424 3.65199C37.3987 3.75366 37.3353 3.84561 37.2557 3.92249L3.92232 37.2558C3.76608 37.4121 3.55415 37.4999 3.33316 37.5Z" fill="#75668C"/>
</svg>
