<svg width="64" height="64" viewBox="0 0 64 64" fill="none" xmlns="http://www.w3.org/2000/svg">
<path fill-rule="evenodd" clip-rule="evenodd" d="M41.5063 13.3337H21.334C13.7915 13.3337 10.0203 13.3337 7.67713 15.6769C5.43991 17.9141 5.33877 21.4532 5.3342 28.3337H58.6671C58.6664 27.3265 58.6637 26.3909 58.6525 25.5205C57.073 26.2856 55.3005 26.7146 53.4277 26.7146C46.8003 26.7146 41.4277 21.342 41.4277 14.7146C41.4277 14.2476 41.4544 13.7868 41.5063 13.3337ZM5.33398 30.3337H58.6673V37.3337C58.6673 44.8762 58.6673 48.6474 56.3242 50.9906C53.981 53.3337 50.2098 53.3337 42.6674 53.3337H42.6673H21.334H21.3339C13.7915 53.3337 10.0203 53.3337 7.67713 50.9906C5.33398 48.6474 5.33398 44.8762 5.33398 37.3337V30.3337Z" fill="#6F40A4"/>
<path fill-rule="evenodd" clip-rule="evenodd" d="M64 14C64 19.5228 59.5228 24 54 24C48.4772 24 44 19.5228 44 14C44 8.47715 48.4772 4 54 4C59.5228 4 64 8.47715 64 14ZM48.8489 19.1513C48.4584 18.7608 48.4584 18.1276 48.8489 17.7371L52.5858 14.0002L48.848 10.2624C48.4574 9.87187 48.4574 9.2387 48.848 8.84818C49.2385 8.45765 49.8717 8.45765 50.2622 8.84818L54 12.586L57.7378 8.84818C58.1283 8.45765 58.7615 8.45765 59.152 8.84818C59.5426 9.2387 59.5426 9.87186 59.152 10.2624L55.4142 14.0002L59.1511 17.7371C59.5416 18.1276 59.5416 18.7608 59.1511 19.1513C58.7606 19.5418 58.1274 19.5418 57.7369 19.1513L54 15.4144L50.2631 19.1513C49.8726 19.5418 49.2394 19.5418 48.8489 19.1513Z" fill="white"/>
</svg>
